<?xml version="1.0" encoding="utf-8"?>
<svg viewBox="83.294 235.643 763.544 294.042" xmlns="http://www.w3.org/2000/svg">
  <g transform="matrix(1, 0, 0, 1, 83.956345, 88.596589)">
    <rect width="765.432" height="440" fill="#fafafa" stroke="#dedede" pointer-events="all" style=""/>
    <path d="M 220 61 L 1040 61" fill="none" stroke="#dedede" stroke-width="3" stroke-miterlimit="10" stroke-dasharray="9 9" pointer-events="stroke"/>
    <path d="M 220 141 L 1040 140" fill="none" stroke="#dedede" stroke-width="3" stroke-miterlimit="10" stroke-dasharray="9 9" pointer-events="stroke"/>
    <path d="M 220 300 L 1036.393 300" fill="none" stroke="#dedede" stroke-width="3" stroke-miterlimit="10" stroke-dasharray="9 9" pointer-events="stroke" style=""/>
    <path d="M 315.12 220 L 447.12 220" fill="none" stroke="#404040" stroke-width="4" stroke-miterlimit="10" pointer-events="stroke"/>
    <ellipse cx="300.12" cy="220" rx="15.000000000000004" ry="15.000000000000004" fill="#69c0e0" stroke="#404040" stroke-width="4" pointer-events="all"/>
    <ellipse cx="700" cy="220" rx="15.000000000000004" ry="15.000000000000004" fill="#69c0e0" stroke="#404040" stroke-width="4" pointer-events="all"/>
    <path d="M 220 220 L 285.12 220" fill="none" stroke="#404040" stroke-width="4" stroke-miterlimit="10" pointer-events="stroke"/>
    <rect x="268.62" y="244" width="63" height="22" rx="3.3" ry="3.3" fill="#e6e6e6" stroke="#404040" stroke-width="2" pointer-events="all"/>
    <g transform="translate(-0.5 -0.5)"/>
    <path d="M 545 220 L 685 220" fill="none" stroke="#404040" stroke-width="4" stroke-miterlimit="10" pointer-events="stroke"/>
    <ellipse cx="462.12" cy="220" rx="15.000000000000004" ry="15.000000000000004" fill="#69c0e0" stroke="#404040" stroke-width="4" pointer-events="all"/>
    <rect x="430.62" y="244" width="63" height="22" rx="3.3" ry="3.3" fill="#e6e6e6" stroke="#404040" stroke-width="2" pointer-events="all"/>
    <g transform="translate(-0.5 -0.5)"/>
    <rect x="668.5" y="244" width="63" height="22" rx="3.3" ry="3.3" fill="#e6e6e6" stroke="#404040" stroke-width="2" pointer-events="all"/>
    <g transform="translate(-0.5 -0.5)"/>
    <path d="M 220 380 L 1040 380" fill="none" stroke="#dedede" stroke-width="3" stroke-miterlimit="10" stroke-dasharray="9 9" pointer-events="stroke"/>
    <g transform="translate(-0.5 -0.5)"/>
    <path d="M 477.12 220 L 545.19 220" fill="none" stroke="#404040" stroke-width="4" stroke-miterlimit="10" pointer-events="stroke"/>
    <path d="M 715 220 C 715 220 822.428 220 1037.285 220" fill="none" stroke="#404040" stroke-width="4" stroke-miterlimit="10" pointer-events="stroke" style=""/>
    <g transform="translate(-0.5 -0.5)"/>
    <g transform="translate(-0.5 -0.5)"/>
    <g transform="translate(-0.5 -0.5)"/>
    <rect x="40" y="200.5" width="160" height="39" fill="#69c0e0" stroke="#404040" stroke-width="2" pointer-events="all"/>
    <g transform="translate(-0.5 -0.5)"/>
    <g transform="translate(-0.5 -0.5)"/>
    <g transform="translate(-0.5 -0.5)"/>
    <path d="M 315.321 380.043 L 447.321 380.043" fill="none" stroke="#404040" stroke-width="4" stroke-miterlimit="10" pointer-events="stroke"/>
    <ellipse cx="300.321" cy="380.043" rx="15" ry="15" fill="#69c0e0" stroke="#404040" stroke-width="4" pointer-events="all"/>
    <ellipse cx="700.201" cy="380.043" rx="15" ry="15" fill="#69c0e0" stroke="#404040" stroke-width="4" pointer-events="all"/>
    <path d="M 220.201 380.043 L 285.321 380.043" fill="none" stroke="#404040" stroke-width="4" stroke-miterlimit="10" pointer-events="stroke"/>
    <rect x="268.821" y="404.043" width="63" height="22" rx="3.3" ry="3.3" fill="#e6e6e6" stroke="#404040" stroke-width="2" pointer-events="all"/>
    <path d="M 545.201 380.043 L 685.201 380.043" fill="none" stroke="#404040" stroke-width="4" stroke-miterlimit="10" pointer-events="stroke"/>
    <ellipse cx="462.321" cy="380.043" rx="15" ry="15" fill="#69c0e0" stroke="#404040" stroke-width="4" pointer-events="all"/>
    <rect x="430.821" y="404.043" width="63" height="22" rx="3.3" ry="3.3" fill="#e6e6e6" stroke="#404040" stroke-width="2" pointer-events="all"/>
    <rect x="668.701" y="404.043" width="63" height="22" rx="3.3" ry="3.3" fill="#e6e6e6" stroke="#404040" stroke-width="2" pointer-events="all"/>
    <path d="M 477.321 380.043 L 545.391 380.043" fill="none" stroke="#404040" stroke-width="4" stroke-miterlimit="10" pointer-events="stroke"/>
    <path d="M 715.201 380.043 C 715.201 380.043 822.629 380.043 1037.486 380.043" fill="none" stroke="#404040" stroke-width="4" stroke-miterlimit="10" pointer-events="stroke" style=""/>
  </g>
  <text style="fill: rgb(51, 51, 51); font-family: &quot;Times New Roman&quot;; font-size: 21px; font-weight: 700; white-space: pre;" x="183.351" y="315.779">main</text>
  <text style="fill: rgb(51, 51, 51); font-family: &quot;Times New Roman&quot;; font-size: 12px; line-height: 42.6113px; white-space: pre;" x="361.458" y="346.931">Version 1</text>
  <text style="fill: rgb(51, 51, 51); font-family: &quot;Times New Roman&quot;; font-size: 12px; line-height: 42.6113px; white-space: pre;" x="523.384" y="346.987">Version 2</text>
  <text style="fill: rgb(51, 51, 51); font-family: &quot;Times New Roman&quot;; font-size: 12px; line-height: 42.6113px; white-space: pre;" x="765.512" y="345.907">Current</text>
  <rect x="125.06" y="451.348" width="160" height="39" stroke-width="2" pointer-events="all" style="fill: rgb(23, 21, 21); stroke: rgb(23, 21, 21);"/>
  <text style="fill: rgb(255, 255, 255); font-family: &quot;Times New Roman&quot;; font-size: 21px; font-weight: 700; white-space: pre;" x="170.721" y="477.587">GitHub</text>
  <text style="fill: rgb(51, 51, 51); font-family: &quot;Times New Roman&quot;; font-size: 12px; line-height: 42.6113px; white-space: pre;" x="361.318" y="507.316">Version 1</text>
  <text style="fill: rgb(51, 51, 51); font-family: &quot;Times New Roman&quot;; font-size: 12px; line-height: 42.6113px; white-space: pre;" x="522.903" y="507.372">Version 2</text>
  <text style="fill: rgb(51, 51, 51); font-family: &quot;Times New Roman&quot;; font-size: 12px; line-height: 42.6113px; white-space: pre;" x="765.474" y="507.178">Current</text>
</svg>